<svg xmlns="http://www.w3.org/2000/svg" viewBox="0 0 760 356" width="760" height="356" font-family="system-ui, -apple-system, 'Segoe UI', 'Malgun Gothic', sans-serif">
<rect x="1" y="1" width="758" height="354" rx="14" fill="#fcfcfb" stroke="rgba(11,11,11,0.10)"/>
<defs><marker id="ah" markerWidth="9" markerHeight="9" refX="6" refY="3" orient="auto"><path d="M0,0 L6,3 L0,6 Z" fill="#898781"/></marker><marker id="ahb" markerWidth="9" markerHeight="9" refX="6" refY="3" orient="auto"><path d="M0,0 L6,3 L0,6 Z" fill="#2a78d6"/></marker><marker id="ahr" markerWidth="9" markerHeight="9" refX="6" refY="3" orient="auto"><path d="M0,0 L6,3 L0,6 Z" fill="#e34948"/></marker><marker id="aho" markerWidth="9" markerHeight="9" refX="6" refY="3" orient="auto"><path d="M0,0 L6,3 L0,6 Z" fill="#eb6834"/></marker><marker id="ahg" markerWidth="9" markerHeight="9" refX="6" refY="3" orient="auto"><path d="M0,0 L6,3 L0,6 Z" fill="#008300"/></marker><marker id="ahp" markerWidth="9" markerHeight="9" refX="6" refY="3" orient="auto"><path d="M0,0 L6,3 L0,6 Z" fill="#7a3ba7"/></marker></defs>
<text x="34" y="40" font-size="20" font-weight="700" fill="#0b0b0b">키의 필드를 바꾸면 항목이 미아가 된다</text>
<text x="34" y="61" font-size="12.5" fill="#52514e">데이터는 그대로 남아 있는데 접근 경로만 끊긴다 (JDK 17 실측)</text>
<rect x="28" y="88" width="340" height="200" rx="9" fill="#008300" fill-opacity="0.07" stroke="#008300" stroke-opacity="0.30" stroke-width="1.2"/>
<text x="42" y="109" font-size="13" fill="#008300" font-weight="700" text-anchor="start">① put 시점</text>
<text x="42" y="126" font-size="11.5" fill="#52514e" font-weight="400" text-anchor="start">"kim" 의 해시 → 버킷 1</text>
<text x="44" y="138" font-size="11.5" fill="#0b0b0b" font-weight="400" text-anchor="start" font-family="ui-monospace, Consolas, monospace">map.put(key, "value")</text>
<rect x="44" y="152" width="40" height="24" rx="4" fill="#ffffff" stroke="#898781" stroke-width="1.3"/>
<text x="64.0" y="167.78" font-size="10.5" fill="#0b0b0b" font-weight="600" text-anchor="middle">0</text>
<rect x="44" y="182" width="40" height="24" rx="4" fill="#ffffff" stroke="#008300" stroke-width="1.3"/>
<text x="64.0" y="197.78" font-size="10.5" fill="#0b0b0b" font-weight="600" text-anchor="middle">1</text>
<rect x="94" y="182" width="150" height="24" rx="4" fill="#ffffff" stroke="#008300" stroke-width="1.3"/>
<text x="169.0" y="197.6" font-size="10" fill="#008300" font-weight="600" text-anchor="middle">Good("kim") = value</text>
<rect x="44" y="212" width="40" height="24" rx="4" fill="#ffffff" stroke="#898781" stroke-width="1.3"/>
<text x="64.0" y="227.78" font-size="10.5" fill="#0b0b0b" font-weight="600" text-anchor="middle">2</text>
<rect x="44" y="242" width="40" height="24" rx="4" fill="#ffffff" stroke="#898781" stroke-width="1.3"/>
<text x="64.0" y="257.78" font-size="10.5" fill="#0b0b0b" font-weight="600" text-anchor="middle">3</text>
<line x1="278" y1="194" x2="254" y2="194" stroke="#008300" stroke-width="1.4" marker-end="url(#ahg)"/>
<text x="286" y="194" font-size="10.5" fill="#008300" font-weight="700" text-anchor="start">여기를 본다</text>
<text x="44" y="278" font-size="11.5" fill="#008300" font-weight="700" text-anchor="start">정상 저장</text>
<rect x="392" y="88" width="340" height="200" rx="9" fill="#e34948" fill-opacity="0.07" stroke="#e34948" stroke-opacity="0.30" stroke-width="1.2"/>
<text x="406" y="109" font-size="13" fill="#e34948" font-weight="700" text-anchor="start">② key.name 을 "lee" 로 바꾼 뒤</text>
<text x="406" y="126" font-size="11.5" fill="#52514e" font-weight="400" text-anchor="start">"lee" 의 해시 → 버킷 3</text>
<text x="408" y="138" font-size="11.5" fill="#0b0b0b" font-weight="400" text-anchor="start" font-family="ui-monospace, Consolas, monospace">map.get(key)</text>
<rect x="408" y="152" width="40" height="24" rx="4" fill="#ffffff" stroke="#898781" stroke-width="1.3"/>
<text x="428.0" y="167.78" font-size="10.5" fill="#0b0b0b" font-weight="600" text-anchor="middle">0</text>
<rect x="408" y="182" width="40" height="24" rx="4" fill="#ffffff" stroke="#898781" stroke-width="1.3"/>
<text x="428.0" y="197.78" font-size="10.5" fill="#0b0b0b" font-weight="600" text-anchor="middle">1</text>
<rect x="458" y="182" width="150" height="24" rx="4" fill="#ffffff" stroke="#898781" stroke-width="1.3"/>
<text x="533.0" y="197.6" font-size="10" fill="#52514e" font-weight="600" text-anchor="middle">Good("kim") = value</text>
<rect x="408" y="212" width="40" height="24" rx="4" fill="#ffffff" stroke="#898781" stroke-width="1.3"/>
<text x="428.0" y="227.78" font-size="10.5" fill="#0b0b0b" font-weight="600" text-anchor="middle">2</text>
<rect x="408" y="242" width="40" height="24" rx="4" fill="#ffffff" stroke="#e34948" stroke-width="1.3"/>
<text x="428.0" y="257.78" font-size="10.5" fill="#0b0b0b" font-weight="600" text-anchor="middle">3</text>
<line x1="642" y1="254" x2="454" y2="254" stroke="#e34948" stroke-width="1.4" marker-end="url(#ahr)"/>
<text x="650" y="254" font-size="10.5" fill="#e34948" font-weight="700" text-anchor="start">여기를 본다</text>
<text x="408" y="278" font-size="11.5" fill="#e34948" font-weight="700" text-anchor="start">버킷 3 은 비어 있다 → null</text>
<rect x="28" y="300" width="704" height="46" rx="9" fill="#7a3ba7" fill-opacity="0.07" stroke="#7a3ba7" stroke-opacity="0.30" stroke-width="1.2"/>
<text x="44" y="328" font-size="11.5" fill="#7a3ba7" font-weight="700" text-anchor="start" font-family="ui-monospace, Consolas, monospace">map.get(key) → null   ·   map.get(new Good("lee")) → null   ·   map.size() → 1   ·   순회하면 보인다</text>
</svg>