<svg xmlns="http://www.w3.org/2000/svg" viewBox="0 0 760 470" width="760" height="470" font-family="system-ui, -apple-system, 'Segoe UI', 'Malgun Gothic', sans-serif">
<rect x="1" y="1" width="758" height="468" rx="14" fill="#fcfcfb" stroke="rgba(11,11,11,0.10)"/>
<text x="34" y="40" font-size="20" font-weight="700" fill="#0b0b0b">삽입마다의 실제 비용 vs 상각 평균</text>
<text x="34" y="60" font-size="12.5" fill="#52514e">용량을 두 배로 늘리는 동적 배열에 값을 1~16번 삽입할 때</text>
<line x1="96" y1="402.0" x2="700" y2="402.0" stroke="#898781" stroke-width="0.7" stroke-opacity="0.35"/>
<text x="88" y="406.0" font-size="11" fill="#898781" text-anchor="end">0</text>
<line x1="96" y1="300.0" x2="700" y2="300.0" stroke="#898781" stroke-width="0.7" stroke-opacity="0.35"/>
<text x="88" y="304.0" font-size="11" fill="#898781" text-anchor="end">3</text>
<line x1="96" y1="198.0" x2="700" y2="198.0" stroke="#898781" stroke-width="0.7" stroke-opacity="0.35"/>
<text x="88" y="202.0" font-size="11" fill="#898781" text-anchor="end">6</text>
<line x1="96" y1="96.0" x2="700" y2="96.0" stroke="#898781" stroke-width="0.7" stroke-opacity="0.35"/>
<text x="88" y="100.0" font-size="11" fill="#898781" text-anchor="end">9</text>
<line x1="96" y1="402" x2="700" y2="402" stroke="#898781" stroke-width="1.4"/>
<text x="34" y="250" font-size="12.5" fill="#52514e" text-anchor="middle" transform="rotate(-90 34 250)">연산 비용</text>
<text x="700" y="434" font-size="12.5" fill="#52514e" text-anchor="end">몇 번째 삽입인가 (n)</text>
<rect x="103.2" y="368.0" width="23.4" height="34.0" rx="2.5" fill="#2a78d6" fill-opacity="0.85"/>
<text x="114.9" y="418" font-size="10.5" fill="#898781" text-anchor="middle">1</text>
<rect x="140.9" y="334.0" width="23.4" height="68.0" rx="2.5" fill="#2a78d6" fill-opacity="0.85"/>
<text x="152.6" y="418" font-size="10.5" fill="#898781" text-anchor="middle">2</text>
<rect x="178.7" y="300.0" width="23.4" height="102.0" rx="2.5" fill="#2a78d6" fill-opacity="0.85"/>
<text x="190.4" y="418" font-size="10.5" fill="#898781" text-anchor="middle">3</text>
<text x="190.4" y="294.0" font-size="11" font-weight="600" fill="#2a78d6" text-anchor="middle">3</text>
<rect x="216.4" y="368.0" width="23.4" height="34.0" rx="2.5" fill="#2a78d6" fill-opacity="0.85"/>
<text x="228.1" y="418" font-size="10.5" fill="#898781" text-anchor="middle">4</text>
<rect x="254.2" y="232.0" width="23.4" height="170.0" rx="2.5" fill="#2a78d6" fill-opacity="0.85"/>
<text x="265.9" y="418" font-size="10.5" fill="#898781" text-anchor="middle">5</text>
<text x="265.9" y="226.0" font-size="11" font-weight="600" fill="#2a78d6" text-anchor="middle">5</text>
<rect x="291.9" y="368.0" width="23.4" height="34.0" rx="2.5" fill="#2a78d6" fill-opacity="0.85"/>
<text x="303.6" y="418" font-size="10.5" fill="#898781" text-anchor="middle">6</text>
<rect x="329.7" y="368.0" width="23.4" height="34.0" rx="2.5" fill="#2a78d6" fill-opacity="0.85"/>
<text x="341.4" y="418" font-size="10.5" fill="#898781" text-anchor="middle">7</text>
<rect x="367.4" y="368.0" width="23.4" height="34.0" rx="2.5" fill="#2a78d6" fill-opacity="0.85"/>
<text x="379.1" y="418" font-size="10.5" fill="#898781" text-anchor="middle">8</text>
<rect x="405.2" y="96.0" width="23.4" height="306.0" rx="2.5" fill="#2a78d6" fill-opacity="0.85"/>
<text x="416.9" y="418" font-size="10.5" fill="#898781" text-anchor="middle">9</text>
<text x="416.9" y="90.0" font-size="11" font-weight="600" fill="#2a78d6" text-anchor="middle">9</text>
<rect x="442.9" y="368.0" width="23.4" height="34.0" rx="2.5" fill="#2a78d6" fill-opacity="0.85"/>
<text x="454.6" y="418" font-size="10.5" fill="#898781" text-anchor="middle">10</text>
<rect x="480.7" y="368.0" width="23.4" height="34.0" rx="2.5" fill="#2a78d6" fill-opacity="0.85"/>
<text x="492.4" y="418" font-size="10.5" fill="#898781" text-anchor="middle">11</text>
<rect x="518.4" y="368.0" width="23.4" height="34.0" rx="2.5" fill="#2a78d6" fill-opacity="0.85"/>
<text x="530.1" y="418" font-size="10.5" fill="#898781" text-anchor="middle">12</text>
<rect x="556.2" y="368.0" width="23.4" height="34.0" rx="2.5" fill="#2a78d6" fill-opacity="0.85"/>
<text x="567.9" y="418" font-size="10.5" fill="#898781" text-anchor="middle">13</text>
<rect x="593.9" y="368.0" width="23.4" height="34.0" rx="2.5" fill="#2a78d6" fill-opacity="0.85"/>
<text x="605.6" y="418" font-size="10.5" fill="#898781" text-anchor="middle">14</text>
<rect x="631.7" y="368.0" width="23.4" height="34.0" rx="2.5" fill="#2a78d6" fill-opacity="0.85"/>
<text x="643.4" y="418" font-size="10.5" fill="#898781" text-anchor="middle">15</text>
<rect x="669.4" y="368.0" width="23.4" height="34.0" rx="2.5" fill="#2a78d6" fill-opacity="0.85"/>
<text x="681.1" y="418" font-size="10.5" fill="#898781" text-anchor="middle">16</text>
<polyline points="114.9 368.0 152.6 351.0 190.4 334.0 228.1 342.5 265.9 320.4 303.6 328.3 341.4 334.0 379.1 338.2 416.9 311.3 454.6 317.0 492.4 321.6 530.1 325.5 567.9 328.8 605.6 331.6 643.4 334.0 681.1 336.1" fill="none" stroke="#eb6834" stroke-width="2.6" stroke-linecap="round" stroke-linejoin="round"/>
<circle cx="114.9" cy="368.0" r="2.6" fill="#eb6834"/>
<circle cx="152.6" cy="351.0" r="2.6" fill="#eb6834"/>
<circle cx="190.4" cy="334.0" r="2.6" fill="#eb6834"/>
<circle cx="228.1" cy="342.5" r="2.6" fill="#eb6834"/>
<circle cx="265.9" cy="320.4" r="2.6" fill="#eb6834"/>
<circle cx="303.6" cy="328.3" r="2.6" fill="#eb6834"/>
<circle cx="341.4" cy="334.0" r="2.6" fill="#eb6834"/>
<circle cx="379.1" cy="338.2" r="2.6" fill="#eb6834"/>
<circle cx="416.9" cy="311.3" r="2.6" fill="#eb6834"/>
<circle cx="454.6" cy="317.0" r="2.6" fill="#eb6834"/>
<circle cx="492.4" cy="321.6" r="2.6" fill="#eb6834"/>
<circle cx="530.1" cy="325.5" r="2.6" fill="#eb6834"/>
<circle cx="567.9" cy="328.8" r="2.6" fill="#eb6834"/>
<circle cx="605.6" cy="331.6" r="2.6" fill="#eb6834"/>
<circle cx="643.4" cy="334.0" r="2.6" fill="#eb6834"/>
<circle cx="681.1" cy="336.1" r="2.6" fill="#eb6834"/>
<rect x="470" y="118" width="14" height="14" rx="3" fill="#2a78d6" fill-opacity="0.85"/>
<text x="490" y="130" font-size="12.5" fill="#52514e">실제 비용 (확장 시 O(n) 급등)</text>
<line x1="470" y1="148" x2="484" y2="148" stroke="#eb6834" stroke-width="2.6"/>
<circle cx="477" cy="148" r="2.6" fill="#eb6834"/>
<text x="490" y="152" font-size="12.5" fill="#52514e">누적 상각 평균 (≈2로 수렴 → O(1))</text>
</svg>
