<svg xmlns="http://www.w3.org/2000/svg" viewBox="0 0 760 470" width="760" height="470" font-family="system-ui, -apple-system, 'Segoe UI', 'Malgun Gothic', sans-serif">
<rect x="1" y="1" width="758" height="468" rx="14" fill="#fcfcfb" stroke="rgba(11,11,11,0.10)"/>
<text x="34" y="40" font-size="20" font-weight="700" fill="#0b0b0b">시간 복잡도 증가 곡선 비교</text>
<text x="34" y="60" font-size="12.5" fill="#52514e">입력 크기 n이 커질수록 연산 횟수가 얼마나 빨리 늘어나는가</text>
<defs><marker id="ah" markerWidth="9" markerHeight="9" refX="6" refY="3" orient="auto"><path d="M0,0 L6,3 L0,6 Z" fill="#898781"/></marker></defs>
<line x1="96" y1="402" x2="96" y2="84" stroke="#898781" stroke-width="1.4" marker-end="url(#ah)"/>
<line x1="96" y1="402" x2="634" y2="402" stroke="#898781" stroke-width="1.4" marker-end="url(#ah)"/>
<text x="644" y="406" font-size="12.5" fill="#52514e">입력 크기 (n)</text>
<text x="34" y="250.0" font-size="12.5" fill="#52514e" text-anchor="middle" transform="rotate(-90 34 250.0)">연산 횟수</text>
<text x="84" y="404" font-size="11" fill="#898781" text-anchor="end">적음</text>
<text x="84" y="106" font-size="11" fill="#898781" text-anchor="end">많음</text>
<path d="M 96.0 392.5 L 97.3 392.5 L 98.5 392.5 L 99.8 392.5 L 101.1 392.5 L 102.3 392.5 L 103.6 392.5 L 104.9 392.5 L 106.2 392.5 L 107.4 392.5 L 108.7 392.5 L 110.0 392.5 L 111.2 392.5 L 112.5 392.5 L 113.8 392.5 L 115.0 392.5 L 116.3 392.5 L 117.6 392.5 L 118.9 392.5 L 120.1 392.5 L 121.4 392.5 L 122.7 392.5 L 123.9 392.5 L 125.2 392.5 L 126.5 392.5 L 127.8 392.5 L 129.0 392.5 L 130.3 392.5 L 131.6 392.5 L 132.8 392.5 L 134.1 392.5 L 135.4 392.5 L 136.6 392.5 L 137.9 392.5 L 139.2 392.5 L 140.4 392.5 L 141.7 392.5 L 143.0 392.5 L 144.3 392.5 L 145.5 392.5 L 146.8 392.5 L 148.1 392.5 L 149.3 392.5 L 150.6 392.5 L 151.9 392.5 L 153.2 392.5 L 154.4 392.5 L 155.7 392.5 L 157.0 392.5 L 158.2 392.5 L 159.5 392.5 L 160.8 392.5 L 162.0 392.5 L 163.3 392.5 L 164.6 392.5 L 165.9 392.5 L 167.1 392.5 L 168.4 392.5 L 169.7 392.5 L 170.9 392.5 L 172.2 392.5 L 173.5 392.5 L 174.7 392.5 L 176.0 392.5 L 177.3 392.5 L 178.6 392.5 L 179.8 392.5 L 181.1 392.5 L 182.4 392.5 L 183.6 392.5 L 184.9 392.5 L 186.2 392.5 L 187.4 392.5 L 188.7 392.5 L 190.0 392.5 L 191.2 392.5 L 192.5 392.5 L 193.8 392.5 L 195.1 392.5 L 196.3 392.5 L 197.6 392.5 L 198.9 392.5 L 200.1 392.5 L 201.4 392.5 L 202.7 392.5 L 203.9 392.5 L 205.2 392.5 L 206.5 392.5 L 207.8 392.5 L 209.0 392.5 L 210.3 392.5 L 211.6 392.5 L 212.8 392.5 L 214.1 392.5 L 215.4 392.5 L 216.6 392.5 L 217.9 392.5 L 219.2 392.5 L 220.5 392.5 L 221.7 392.5 L 223.0 392.5 L 224.3 392.5 L 225.5 392.5 L 226.8 392.5 L 228.1 392.5 L 229.3 392.5 L 230.6 392.5 L 231.9 392.5 L 233.2 392.5 L 234.4 392.5 L 235.7 392.5 L 237.0 392.5 L 238.2 392.5 L 239.5 392.5 L 240.8 392.5 L 242.0 392.5 L 243.3 392.5 L 244.6 392.5 L 245.9 392.5 L 247.1 392.5 L 248.4 392.5 L 249.7 392.5 L 250.9 392.5 L 252.2 392.5 L 253.5 392.5 L 254.8 392.5 L 256.0 392.5 L 257.3 392.5 L 258.6 392.5 L 259.8 392.5 L 261.1 392.5 L 262.4 392.5 L 263.6 392.5 L 264.9 392.5 L 266.2 392.5 L 267.5 392.5 L 268.7 392.5 L 270.0 392.5 L 271.3 392.5 L 272.5 392.5 L 273.8 392.5 L 275.1 392.5 L 276.3 392.5 L 277.6 392.5 L 278.9 392.5 L 280.1 392.5 L 281.4 392.5 L 282.7 392.5 L 284.0 392.5 L 285.2 392.5 L 286.5 392.5 L 287.8 392.5 L 289.0 392.5 L 290.3 392.5 L 291.6 392.5 L 292.9 392.5 L 294.1 392.5 L 295.4 392.5 L 296.7 392.5 L 297.9 392.5 L 299.2 392.5 L 300.5 392.5 L 301.7 392.5 L 303.0 392.5 L 304.3 392.5 L 305.5 392.5 L 306.8 392.5 L 308.1 392.5 L 309.4 392.5 L 310.6 392.5 L 311.9 392.5 L 313.2 392.5 L 314.4 392.5 L 315.7 392.5 L 317.0 392.5 L 318.2 392.5 L 319.5 392.5 L 320.8 392.5 L 322.1 392.5 L 323.3 392.5 L 324.6 392.5 L 325.9 392.5 L 327.1 392.5 L 328.4 392.5 L 329.7 392.5 L 331.0 392.5 L 332.2 392.5 L 333.5 392.5 L 334.8 392.5 L 336.0 392.5 L 337.3 392.5 L 338.6 392.5 L 339.8 392.5 L 341.1 392.5 L 342.4 392.5 L 343.6 392.5 L 344.9 392.5 L 346.2 392.5 L 347.5 392.5 L 348.7 392.5 L 350.0 392.5 L 351.3 392.5 L 352.5 392.5 L 353.8 392.5 L 355.1 392.5 L 356.3 392.5 L 357.6 392.5 L 358.9 392.5 L 360.2 392.5 L 361.4 392.5 L 362.7 392.5 L 364.0 392.5 L 365.2 392.5 L 366.5 392.5 L 367.8 392.5 L 369.1 392.5 L 370.3 392.5 L 371.6 392.5 L 372.9 392.5 L 374.1 392.5 L 375.4 392.5 L 376.7 392.5 L 377.9 392.5 L 379.2 392.5 L 380.5 392.5 L 381.8 392.5 L 383.0 392.5 L 384.3 392.5 L 385.6 392.5 L 386.8 392.5 L 388.1 392.5 L 389.4 392.5 L 390.6 392.5 L 391.9 392.5 L 393.2 392.5 L 394.4 392.5 L 395.7 392.5 L 397.0 392.5 L 398.3 392.5 L 399.5 392.5 L 400.8 392.5 L 402.1 392.5 L 403.3 392.5 L 404.6 392.5 L 405.9 392.5 L 407.2 392.5 L 408.4 392.5 L 409.7 392.5 L 411.0 392.5 L 412.2 392.5 L 413.5 392.5 L 414.8 392.5 L 416.0 392.5 L 417.3 392.5 L 418.6 392.5 L 419.8 392.5 L 421.1 392.5 L 422.4 392.5 L 423.7 392.5 L 424.9 392.5 L 426.2 392.5 L 427.5 392.5 L 428.7 392.5 L 430.0 392.5 L 431.3 392.5 L 432.6 392.5 L 433.8 392.5 L 435.1 392.5 L 436.4 392.5 L 437.6 392.5 L 438.9 392.5 L 440.2 392.5 L 441.4 392.5 L 442.7 392.5 L 444.0 392.5 L 445.2 392.5 L 446.5 392.5 L 447.8 392.5 L 449.1 392.5 L 450.3 392.5 L 451.6 392.5 L 452.9 392.5 L 454.1 392.5 L 455.4 392.5 L 456.7 392.5 L 457.9 392.5 L 459.2 392.5 L 460.5 392.5 L 461.8 392.5 L 463.0 392.5 L 464.3 392.5 L 465.6 392.5 L 466.8 392.5 L 468.1 392.5 L 469.4 392.5 L 470.7 392.5 L 471.9 392.5 L 473.2 392.5 L 474.5 392.5 L 475.7 392.5 L 477.0 392.5 L 478.3 392.5 L 479.5 392.5 L 480.8 392.5 L 482.1 392.5 L 483.3 392.5 L 484.6 392.5 L 485.9 392.5 L 487.2 392.5 L 488.4 392.5 L 489.7 392.5 L 491.0 392.5 L 492.2 392.5 L 493.5 392.5 L 494.8 392.5 L 496.1 392.5 L 497.3 392.5 L 498.6 392.5 L 499.9 392.5 L 501.1 392.5 L 502.4 392.5 L 503.7 392.5 L 504.9 392.5 L 506.2 392.5 L 507.5 392.5 L 508.8 392.5 L 510.0 392.5 L 511.3 392.5 L 512.6 392.5 L 513.8 392.5 L 515.1 392.5 L 516.4 392.5 L 517.6 392.5 L 518.9 392.5 L 520.2 392.5 L 521.5 392.5 L 522.7 392.5 L 524.0 392.5 L 525.3 392.5 L 526.5 392.5 L 527.8 392.5 L 529.1 392.5 L 530.3 392.5 L 531.6 392.5 L 532.9 392.5 L 534.2 392.5 L 535.4 392.5 L 536.7 392.5 L 538.0 392.5 L 539.2 392.5 L 540.5 392.5 L 541.8 392.5 L 543.0 392.5 L 544.3 392.5 L 545.6 392.5 L 546.8 392.5 L 548.1 392.5 L 549.4 392.5 L 550.7 392.5 L 551.9 392.5 L 553.2 392.5 L 554.5 392.5 L 555.7 392.5 L 557.0 392.5 L 558.3 392.5 L 559.5 392.5 L 560.8 392.5 L 562.1 392.5 L 563.4 392.5 L 564.6 392.5 L 565.9 392.5 L 567.2 392.5 L 568.4 392.5 L 569.7 392.5 L 571.0 392.5 L 572.2 392.5 L 573.5 392.5 L 574.8 392.5 L 576.1 392.5 L 577.3 392.5 L 578.6 392.5 L 579.9 392.5 L 581.1 392.5 L 582.4 392.5 L 583.7 392.5 L 585.0 392.5 L 586.2 392.5 L 587.5 392.5 L 588.8 392.5 L 590.0 392.5 L 591.3 392.5 L 592.6 392.5 L 593.8 392.5 L 595.1 392.5 L 596.4 392.5 L 597.7 392.5 L 598.9 392.5 L 600.2 392.5 L 601.5 392.5 L 602.7 392.5 L 604.0 392.5" fill="none" stroke="#008300" stroke-width="2.4" stroke-linecap="round" stroke-linejoin="round"/>
<path d="M 96.0 402.0 L 97.3 401.5 L 98.5 401.0 L 99.8 400.5 L 101.1 400.1 L 102.3 399.6 L 103.6 399.2 L 104.9 398.8 L 106.2 398.4 L 107.4 398.0 L 108.7 397.6 L 110.0 397.3 L 111.2 396.9 L 112.5 396.6 L 113.8 396.2 L 115.0 395.9 L 116.3 395.6 L 117.6 395.2 L 118.9 394.9 L 120.1 394.6 L 121.4 394.3 L 122.7 394.0 L 123.9 393.8 L 125.2 393.5 L 126.5 393.2 L 127.8 392.9 L 129.0 392.7 L 130.3 392.4 L 131.6 392.2 L 132.8 391.9 L 134.1 391.7 L 135.4 391.4 L 136.6 391.2 L 137.9 391.0 L 139.2 390.7 L 140.4 390.5 L 141.7 390.3 L 143.0 390.1 L 144.3 389.9 L 145.5 389.6 L 146.8 389.4 L 148.1 389.2 L 149.3 389.0 L 150.6 388.8 L 151.9 388.6 L 153.2 388.5 L 154.4 388.3 L 155.7 388.1 L 157.0 387.9 L 158.2 387.7 L 159.5 387.5 L 160.8 387.3 L 162.0 387.2 L 163.3 387.0 L 164.6 386.8 L 165.9 386.7 L 167.1 386.5 L 168.4 386.3 L 169.7 386.2 L 170.9 386.0 L 172.2 385.8 L 173.5 385.7 L 174.7 385.5 L 176.0 385.4 L 177.3 385.2 L 178.6 385.1 L 179.8 384.9 L 181.1 384.8 L 182.4 384.6 L 183.6 384.5 L 184.9 384.3 L 186.2 384.2 L 187.4 384.1 L 188.7 383.9 L 190.0 383.8 L 191.2 383.7 L 192.5 383.5 L 193.8 383.4 L 195.1 383.3 L 196.3 383.1 L 197.6 383.0 L 198.9 382.9 L 200.1 382.7 L 201.4 382.6 L 202.7 382.5 L 203.9 382.4 L 205.2 382.2 L 206.5 382.1 L 207.8 382.0 L 209.0 381.9 L 210.3 381.8 L 211.6 381.7 L 212.8 381.5 L 214.1 381.4 L 215.4 381.3 L 216.6 381.2 L 217.9 381.1 L 219.2 381.0 L 220.5 380.9 L 221.7 380.8 L 223.0 380.6 L 224.3 380.5 L 225.5 380.4 L 226.8 380.3 L 228.1 380.2 L 229.3 380.1 L 230.6 380.0 L 231.9 379.9 L 233.2 379.8 L 234.4 379.7 L 235.7 379.6 L 237.0 379.5 L 238.2 379.4 L 239.5 379.3 L 240.8 379.2 L 242.0 379.1 L 243.3 379.0 L 244.6 378.9 L 245.9 378.8 L 247.1 378.7 L 248.4 378.6 L 249.7 378.5 L 250.9 378.4 L 252.2 378.4 L 253.5 378.3 L 254.8 378.2 L 256.0 378.1 L 257.3 378.0 L 258.6 377.9 L 259.8 377.8 L 261.1 377.7 L 262.4 377.6 L 263.6 377.6 L 264.9 377.5 L 266.2 377.4 L 267.5 377.3 L 268.7 377.2 L 270.0 377.1 L 271.3 377.0 L 272.5 377.0 L 273.8 376.9 L 275.1 376.8 L 276.3 376.7 L 277.6 376.6 L 278.9 376.6 L 280.1 376.5 L 281.4 376.4 L 282.7 376.3 L 284.0 376.2 L 285.2 376.2 L 286.5 376.1 L 287.8 376.0 L 289.0 375.9 L 290.3 375.9 L 291.6 375.8 L 292.9 375.7 L 294.1 375.6 L 295.4 375.6 L 296.7 375.5 L 297.9 375.4 L 299.2 375.3 L 300.5 375.3 L 301.7 375.2 L 303.0 375.1 L 304.3 375.0 L 305.5 375.0 L 306.8 374.9 L 308.1 374.8 L 309.4 374.8 L 310.6 374.7 L 311.9 374.6 L 313.2 374.5 L 314.4 374.5 L 315.7 374.4 L 317.0 374.3 L 318.2 374.3 L 319.5 374.2 L 320.8 374.1 L 322.1 374.1 L 323.3 374.0 L 324.6 373.9 L 325.9 373.9 L 327.1 373.8 L 328.4 373.7 L 329.7 373.7 L 331.0 373.6 L 332.2 373.5 L 333.5 373.5 L 334.8 373.4 L 336.0 373.4 L 337.3 373.3 L 338.6 373.2 L 339.8 373.2 L 341.1 373.1 L 342.4 373.0 L 343.6 373.0 L 344.9 372.9 L 346.2 372.9 L 347.5 372.8 L 348.7 372.7 L 350.0 372.7 L 351.3 372.6 L 352.5 372.5 L 353.8 372.5 L 355.1 372.4 L 356.3 372.4 L 357.6 372.3 L 358.9 372.3 L 360.2 372.2 L 361.4 372.1 L 362.7 372.1 L 364.0 372.0 L 365.2 372.0 L 366.5 371.9 L 367.8 371.8 L 369.1 371.8 L 370.3 371.7 L 371.6 371.7 L 372.9 371.6 L 374.1 371.6 L 375.4 371.5 L 376.7 371.5 L 377.9 371.4 L 379.2 371.3 L 380.5 371.3 L 381.8 371.2 L 383.0 371.2 L 384.3 371.1 L 385.6 371.1 L 386.8 371.0 L 388.1 371.0 L 389.4 370.9 L 390.6 370.9 L 391.9 370.8 L 393.2 370.8 L 394.4 370.7 L 395.7 370.6 L 397.0 370.6 L 398.3 370.5 L 399.5 370.5 L 400.8 370.4 L 402.1 370.4 L 403.3 370.3 L 404.6 370.3 L 405.9 370.2 L 407.2 370.2 L 408.4 370.1 L 409.7 370.1 L 411.0 370.0 L 412.2 370.0 L 413.5 369.9 L 414.8 369.9 L 416.0 369.8 L 417.3 369.8 L 418.6 369.7 L 419.8 369.7 L 421.1 369.6 L 422.4 369.6 L 423.7 369.5 L 424.9 369.5 L 426.2 369.5 L 427.5 369.4 L 428.7 369.4 L 430.0 369.3 L 431.3 369.3 L 432.6 369.2 L 433.8 369.2 L 435.1 369.1 L 436.4 369.1 L 437.6 369.0 L 438.9 369.0 L 440.2 368.9 L 441.4 368.9 L 442.7 368.8 L 444.0 368.8 L 445.2 368.8 L 446.5 368.7 L 447.8 368.7 L 449.1 368.6 L 450.3 368.6 L 451.6 368.5 L 452.9 368.5 L 454.1 368.4 L 455.4 368.4 L 456.7 368.3 L 457.9 368.3 L 459.2 368.3 L 460.5 368.2 L 461.8 368.2 L 463.0 368.1 L 464.3 368.1 L 465.6 368.0 L 466.8 368.0 L 468.1 368.0 L 469.4 367.9 L 470.7 367.9 L 471.9 367.8 L 473.2 367.8 L 474.5 367.7 L 475.7 367.7 L 477.0 367.7 L 478.3 367.6 L 479.5 367.6 L 480.8 367.5 L 482.1 367.5 L 483.3 367.5 L 484.6 367.4 L 485.9 367.4 L 487.2 367.3 L 488.4 367.3 L 489.7 367.2 L 491.0 367.2 L 492.2 367.2 L 493.5 367.1 L 494.8 367.1 L 496.1 367.0 L 497.3 367.0 L 498.6 367.0 L 499.9 366.9 L 501.1 366.9 L 502.4 366.8 L 503.7 366.8 L 504.9 366.8 L 506.2 366.7 L 507.5 366.7 L 508.8 366.6 L 510.0 366.6 L 511.3 366.6 L 512.6 366.5 L 513.8 366.5 L 515.1 366.5 L 516.4 366.4 L 517.6 366.4 L 518.9 366.3 L 520.2 366.3 L 521.5 366.3 L 522.7 366.2 L 524.0 366.2 L 525.3 366.2 L 526.5 366.1 L 527.8 366.1 L 529.1 366.0 L 530.3 366.0 L 531.6 366.0 L 532.9 365.9 L 534.2 365.9 L 535.4 365.9 L 536.7 365.8 L 538.0 365.8 L 539.2 365.7 L 540.5 365.7 L 541.8 365.7 L 543.0 365.6 L 544.3 365.6 L 545.6 365.6 L 546.8 365.5 L 548.1 365.5 L 549.4 365.5 L 550.7 365.4 L 551.9 365.4 L 553.2 365.3 L 554.5 365.3 L 555.7 365.3 L 557.0 365.2 L 558.3 365.2 L 559.5 365.2 L 560.8 365.1 L 562.1 365.1 L 563.4 365.1 L 564.6 365.0 L 565.9 365.0 L 567.2 365.0 L 568.4 364.9 L 569.7 364.9 L 571.0 364.9 L 572.2 364.8 L 573.5 364.8 L 574.8 364.8 L 576.1 364.7 L 577.3 364.7 L 578.6 364.7 L 579.9 364.6 L 581.1 364.6 L 582.4 364.6 L 583.7 364.5 L 585.0 364.5 L 586.2 364.5 L 587.5 364.4 L 588.8 364.4 L 590.0 364.4 L 591.3 364.3 L 592.6 364.3 L 593.8 364.3 L 595.1 364.2 L 596.4 364.2 L 597.7 364.2 L 598.9 364.1 L 600.2 364.1 L 601.5 364.1 L 602.7 364.0 L 604.0 364.0" fill="none" stroke="#2a78d6" stroke-width="2.4" stroke-linecap="round" stroke-linejoin="round"/>
<path d="M 96.0 392.5 L 97.3 392.1 L 98.5 391.8 L 99.8 391.4 L 101.1 391.1 L 102.3 390.7 L 103.6 390.4 L 104.9 390.0 L 106.2 389.6 L 107.4 389.3 L 108.7 388.9 L 110.0 388.6 L 111.2 388.2 L 112.5 387.9 L 113.8 387.5 L 115.0 387.2 L 116.3 386.8 L 117.6 386.4 L 118.9 386.1 L 120.1 385.7 L 121.4 385.4 L 122.7 385.0 L 123.9 384.7 L 125.2 384.3 L 126.5 383.9 L 127.8 383.6 L 129.0 383.2 L 130.3 382.9 L 131.6 382.5 L 132.8 382.2 L 134.1 381.8 L 135.4 381.5 L 136.6 381.1 L 137.9 380.7 L 139.2 380.4 L 140.4 380.0 L 141.7 379.7 L 143.0 379.3 L 144.3 379.0 L 145.5 378.6 L 146.8 378.2 L 148.1 377.9 L 149.3 377.5 L 150.6 377.2 L 151.9 376.8 L 153.2 376.5 L 154.4 376.1 L 155.7 375.8 L 157.0 375.4 L 158.2 375.0 L 159.5 374.7 L 160.8 374.3 L 162.0 374.0 L 163.3 373.6 L 164.6 373.3 L 165.9 372.9 L 167.1 372.6 L 168.4 372.2 L 169.7 371.8 L 170.9 371.5 L 172.2 371.1 L 173.5 370.8 L 174.7 370.4 L 176.0 370.1 L 177.3 369.7 L 178.6 369.3 L 179.8 369.0 L 181.1 368.6 L 182.4 368.3 L 183.6 367.9 L 184.9 367.6 L 186.2 367.2 L 187.4 366.9 L 188.7 366.5 L 190.0 366.1 L 191.2 365.8 L 192.5 365.4 L 193.8 365.1 L 195.1 364.7 L 196.3 364.4 L 197.6 364.0 L 198.9 363.6 L 200.1 363.3 L 201.4 362.9 L 202.7 362.6 L 203.9 362.2 L 205.2 361.9 L 206.5 361.5 L 207.8 361.1 L 209.0 360.8 L 210.3 360.4 L 211.6 360.1 L 212.8 359.7 L 214.1 359.4 L 215.4 359.0 L 216.6 358.7 L 217.9 358.3 L 219.2 357.9 L 220.5 357.6 L 221.7 357.2 L 223.0 356.9 L 224.3 356.5 L 225.5 356.2 L 226.8 355.8 L 228.1 355.4 L 229.3 355.1 L 230.6 354.7 L 231.9 354.4 L 233.2 354.0 L 234.4 353.7 L 235.7 353.3 L 237.0 353.0 L 238.2 352.6 L 239.5 352.2 L 240.8 351.9 L 242.0 351.5 L 243.3 351.2 L 244.6 350.8 L 245.9 350.5 L 247.1 350.1 L 248.4 349.8 L 249.7 349.4 L 250.9 349.0 L 252.2 348.7 L 253.5 348.3 L 254.8 348.0 L 256.0 347.6 L 257.3 347.3 L 258.6 346.9 L 259.8 346.5 L 261.1 346.2 L 262.4 345.8 L 263.6 345.5 L 264.9 345.1 L 266.2 344.8 L 267.5 344.4 L 268.7 344.1 L 270.0 343.7 L 271.3 343.3 L 272.5 343.0 L 273.8 342.6 L 275.1 342.3 L 276.3 341.9 L 277.6 341.6 L 278.9 341.2 L 280.1 340.8 L 281.4 340.5 L 282.7 340.1 L 284.0 339.8 L 285.2 339.4 L 286.5 339.1 L 287.8 338.7 L 289.0 338.4 L 290.3 338.0 L 291.6 337.6 L 292.9 337.3 L 294.1 336.9 L 295.4 336.6 L 296.7 336.2 L 297.9 335.9 L 299.2 335.5 L 300.5 335.1 L 301.7 334.8 L 303.0 334.4 L 304.3 334.1 L 305.5 333.7 L 306.8 333.4 L 308.1 333.0 L 309.4 332.6 L 310.6 332.3 L 311.9 331.9 L 313.2 331.6 L 314.4 331.2 L 315.7 330.9 L 317.0 330.5 L 318.2 330.2 L 319.5 329.8 L 320.8 329.4 L 322.1 329.1 L 323.3 328.7 L 324.6 328.4 L 325.9 328.0 L 327.1 327.7 L 328.4 327.3 L 329.7 326.9 L 331.0 326.6 L 332.2 326.2 L 333.5 325.9 L 334.8 325.5 L 336.0 325.2 L 337.3 324.8 L 338.6 324.5 L 339.8 324.1 L 341.1 323.7 L 342.4 323.4 L 343.6 323.0 L 344.9 322.7 L 346.2 322.3 L 347.5 322.0 L 348.7 321.6 L 350.0 321.2 L 351.3 320.9 L 352.5 320.5 L 353.8 320.2 L 355.1 319.8 L 356.3 319.5 L 357.6 319.1 L 358.9 318.8 L 360.2 318.4 L 361.4 318.0 L 362.7 317.7 L 364.0 317.3 L 365.2 317.0 L 366.5 316.6 L 367.8 316.3 L 369.1 315.9 L 370.3 315.6 L 371.6 315.2 L 372.9 314.8 L 374.1 314.5 L 375.4 314.1 L 376.7 313.8 L 377.9 313.4 L 379.2 313.1 L 380.5 312.7 L 381.8 312.3 L 383.0 312.0 L 384.3 311.6 L 385.6 311.3 L 386.8 310.9 L 388.1 310.6 L 389.4 310.2 L 390.6 309.9 L 391.9 309.5 L 393.2 309.1 L 394.4 308.8 L 395.7 308.4 L 397.0 308.1 L 398.3 307.7 L 399.5 307.4 L 400.8 307.0 L 402.1 306.6 L 403.3 306.3 L 404.6 305.9 L 405.9 305.6 L 407.2 305.2 L 408.4 304.9 L 409.7 304.5 L 411.0 304.1 L 412.2 303.8 L 413.5 303.4 L 414.8 303.1 L 416.0 302.7 L 417.3 302.4 L 418.6 302.0 L 419.8 301.7 L 421.1 301.3 L 422.4 300.9 L 423.7 300.6 L 424.9 300.2 L 426.2 299.9 L 427.5 299.5 L 428.7 299.2 L 430.0 298.8 L 431.3 298.4 L 432.6 298.1 L 433.8 297.7 L 435.1 297.4 L 436.4 297.0 L 437.6 296.7 L 438.9 296.3 L 440.2 296.0 L 441.4 295.6 L 442.7 295.2 L 444.0 294.9 L 445.2 294.5 L 446.5 294.2 L 447.8 293.8 L 449.1 293.5 L 450.3 293.1 L 451.6 292.8 L 452.9 292.4 L 454.1 292.0 L 455.4 291.7 L 456.7 291.3 L 457.9 291.0 L 459.2 290.6 L 460.5 290.3 L 461.8 289.9 L 463.0 289.5 L 464.3 289.2 L 465.6 288.8 L 466.8 288.5 L 468.1 288.1 L 469.4 287.8 L 470.7 287.4 L 471.9 287.1 L 473.2 286.7 L 474.5 286.3 L 475.7 286.0 L 477.0 285.6 L 478.3 285.3 L 479.5 284.9 L 480.8 284.6 L 482.1 284.2 L 483.3 283.8 L 484.6 283.5 L 485.9 283.1 L 487.2 282.8 L 488.4 282.4 L 489.7 282.1 L 491.0 281.7 L 492.2 281.4 L 493.5 281.0 L 494.8 280.6 L 496.1 280.3 L 497.3 279.9 L 498.6 279.6 L 499.9 279.2 L 501.1 278.9 L 502.4 278.5 L 503.7 278.1 L 504.9 277.8 L 506.2 277.4 L 507.5 277.1 L 508.8 276.7 L 510.0 276.4 L 511.3 276.0 L 512.6 275.6 L 513.8 275.3 L 515.1 274.9 L 516.4 274.6 L 517.6 274.2 L 518.9 273.9 L 520.2 273.5 L 521.5 273.2 L 522.7 272.8 L 524.0 272.4 L 525.3 272.1 L 526.5 271.7 L 527.8 271.4 L 529.1 271.0 L 530.3 270.7 L 531.6 270.3 L 532.9 269.9 L 534.2 269.6 L 535.4 269.2 L 536.7 268.9 L 538.0 268.5 L 539.2 268.2 L 540.5 267.8 L 541.8 267.5 L 543.0 267.1 L 544.3 266.7 L 545.6 266.4 L 546.8 266.0 L 548.1 265.7 L 549.4 265.3 L 550.7 265.0 L 551.9 264.6 L 553.2 264.2 L 554.5 263.9 L 555.7 263.5 L 557.0 263.2 L 558.3 262.8 L 559.5 262.5 L 560.8 262.1 L 562.1 261.8 L 563.4 261.4 L 564.6 261.0 L 565.9 260.7 L 567.2 260.3 L 568.4 260.0 L 569.7 259.6 L 571.0 259.3 L 572.2 258.9 L 573.5 258.6 L 574.8 258.2 L 576.1 257.8 L 577.3 257.5 L 578.6 257.1 L 579.9 256.8 L 581.1 256.4 L 582.4 256.1 L 583.7 255.7 L 585.0 255.3 L 586.2 255.0 L 587.5 254.6 L 588.8 254.3 L 590.0 253.9 L 591.3 253.6 L 592.6 253.2 L 593.8 252.8 L 595.1 252.5 L 596.4 252.1 L 597.7 251.8 L 598.9 251.4 L 600.2 251.1 L 601.5 250.7 L 602.7 250.4 L 604.0 250.0" fill="none" stroke="#eb6834" stroke-width="2.4" stroke-linecap="round" stroke-linejoin="round"/>
<path d="M 96.0 402.0 L 97.3 401.5 L 98.5 400.9 L 99.8 400.4 L 101.1 399.8 L 102.3 399.2 L 103.6 398.6 L 104.9 398.0 L 106.2 397.3 L 107.4 396.7 L 108.7 396.0 L 110.0 395.3 L 111.2 394.6 L 112.5 393.9 L 113.8 393.2 L 115.0 392.4 L 116.3 391.7 L 117.6 390.9 L 118.9 390.2 L 120.1 389.4 L 121.4 388.6 L 122.7 387.8 L 123.9 387.0 L 125.2 386.1 L 126.5 385.3 L 127.8 384.4 L 129.0 383.6 L 130.3 382.7 L 131.6 381.8 L 132.8 380.9 L 134.1 380.0 L 135.4 379.1 L 136.6 378.2 L 137.9 377.3 L 139.2 376.4 L 140.4 375.4 L 141.7 374.5 L 143.0 373.5 L 144.3 372.6 L 145.5 371.6 L 146.8 370.6 L 148.1 369.6 L 149.3 368.6 L 150.6 367.6 L 151.9 366.6 L 153.2 365.6 L 154.4 364.6 L 155.7 363.5 L 157.0 362.5 L 158.2 361.4 L 159.5 360.4 L 160.8 359.3 L 162.0 358.3 L 163.3 357.2 L 164.6 356.1 L 165.9 355.0 L 167.1 353.9 L 168.4 352.8 L 169.7 351.7 L 170.9 350.6 L 172.2 349.5 L 173.5 348.4 L 174.7 347.2 L 176.0 346.1 L 177.3 345.0 L 178.6 343.8 L 179.8 342.7 L 181.1 341.5 L 182.4 340.4 L 183.6 339.2 L 184.9 338.0 L 186.2 336.8 L 187.4 335.7 L 188.7 334.5 L 190.0 333.3 L 191.2 332.1 L 192.5 330.9 L 193.8 329.7 L 195.1 328.4 L 196.3 327.2 L 197.6 326.0 L 198.9 324.8 L 200.1 323.5 L 201.4 322.3 L 202.7 321.1 L 203.9 319.8 L 205.2 318.6 L 206.5 317.3 L 207.8 316.0 L 209.0 314.8 L 210.3 313.5 L 211.6 312.2 L 212.8 310.9 L 214.1 309.7 L 215.4 308.4 L 216.6 307.1 L 217.9 305.8 L 219.2 304.5 L 220.5 303.2 L 221.7 301.9 L 223.0 300.6 L 224.3 299.2 L 225.5 297.9 L 226.8 296.6 L 228.1 295.3 L 229.3 293.9 L 230.6 292.6 L 231.9 291.3 L 233.2 289.9 L 234.4 288.6 L 235.7 287.2 L 237.0 285.9 L 238.2 284.5 L 239.5 283.1 L 240.8 281.8 L 242.0 280.4 L 243.3 279.0 L 244.6 277.6 L 245.9 276.3 L 247.1 274.9 L 248.4 273.5 L 249.7 272.1 L 250.9 270.7 L 252.2 269.3 L 253.5 267.9 L 254.8 266.5 L 256.0 265.1 L 257.3 263.7 L 258.6 262.3 L 259.8 260.8 L 261.1 259.4 L 262.4 258.0 L 263.6 256.6 L 264.9 255.1 L 266.2 253.7 L 267.5 252.3 L 268.7 250.8 L 270.0 249.4 L 271.3 247.9 L 272.5 246.5 L 273.8 245.0 L 275.1 243.6 L 276.3 242.1 L 277.6 240.6 L 278.9 239.2 L 280.1 237.7 L 281.4 236.2 L 282.7 234.8 L 284.0 233.3 L 285.2 231.8 L 286.5 230.3 L 287.8 228.8 L 289.0 227.3 L 290.3 225.8 L 291.6 224.3 L 292.9 222.8 L 294.1 221.3 L 295.4 219.8 L 296.7 218.3 L 297.9 216.8 L 299.2 215.3 L 300.5 213.8 L 301.7 212.3 L 303.0 210.8 L 304.3 209.2 L 305.5 207.7 L 306.8 206.2 L 308.1 204.6 L 309.4 203.1 L 310.6 201.6 L 311.9 200.0 L 313.2 198.5 L 314.4 196.9 L 315.7 195.4 L 317.0 193.9 L 318.2 192.3 L 319.5 190.7 L 320.8 189.2 L 322.1 187.6 L 323.3 186.1 L 324.6 184.5 L 325.9 182.9 L 327.1 181.4 L 328.4 179.8 L 329.7 178.2 L 331.0 176.6 L 332.2 175.1 L 333.5 173.5 L 334.8 171.9 L 336.0 170.3 L 337.3 168.7 L 338.6 167.1 L 339.8 165.5 L 341.1 163.9 L 342.4 162.3 L 343.6 160.7 L 344.9 159.1 L 346.2 157.5 L 347.5 155.9 L 348.7 154.3 L 350.0 152.7 L 351.3 151.1 L 352.5 149.5 L 353.8 147.8 L 355.1 146.2 L 356.3 144.6 L 357.6 143.0 L 358.9 141.3 L 360.2 139.7 L 361.4 138.1 L 362.7 136.4 L 364.0 134.8 L 365.2 133.2 L 366.5 131.5 L 367.8 129.9 L 369.1 128.2 L 370.3 126.6 L 371.6 124.9 L 372.9 123.3 L 374.1 121.6 L 375.4 120.0 L 376.7 118.3 L 377.9 116.7 L 379.2 115.0 L 380.5 113.3 L 381.8 111.7 L 383.0 110.0 L 384.3 108.3 L 385.6 106.6 L 386.8 105.0 L 388.1 103.3 L 389.4 101.6 L 390.6 99.9 L 391.9 98.3 L 392.1 98.0" fill="none" stroke="#7a3ba7" stroke-width="2.4" stroke-linecap="round" stroke-linejoin="round"/>
<path d="M 96.0 392.5 L 97.3 391.8 L 98.5 391.0 L 99.8 390.2 L 101.1 389.4 L 102.3 388.6 L 103.6 387.7 L 104.9 386.9 L 106.2 385.9 L 107.4 385.0 L 108.7 384.0 L 110.0 383.0 L 111.2 382.0 L 112.5 381.0 L 113.8 379.9 L 115.0 378.8 L 116.3 377.7 L 117.6 376.5 L 118.9 375.3 L 120.1 374.1 L 121.4 372.9 L 122.7 371.6 L 123.9 370.4 L 125.2 369.0 L 126.5 367.7 L 127.8 366.3 L 129.0 364.9 L 130.3 363.5 L 131.6 362.1 L 132.8 360.6 L 134.1 359.1 L 135.4 357.6 L 136.6 356.0 L 137.9 354.4 L 139.2 352.8 L 140.4 351.2 L 141.7 349.5 L 143.0 347.8 L 144.3 346.1 L 145.5 344.4 L 146.8 342.6 L 148.1 340.8 L 149.3 339.0 L 150.6 337.2 L 151.9 335.3 L 153.2 333.4 L 154.4 331.5 L 155.7 329.5 L 157.0 327.5 L 158.2 325.5 L 159.5 323.5 L 160.8 321.4 L 162.0 319.3 L 163.3 317.2 L 164.6 315.1 L 165.9 312.9 L 167.1 310.7 L 168.4 308.5 L 169.7 306.2 L 170.9 304.0 L 172.2 301.7 L 173.5 299.3 L 174.7 297.0 L 176.0 294.6 L 177.3 292.2 L 178.6 289.7 L 179.8 287.3 L 181.1 284.8 L 182.4 282.3 L 183.6 279.7 L 184.9 277.2 L 186.2 274.6 L 187.4 271.9 L 188.7 269.3 L 190.0 266.6 L 191.2 263.9 L 192.5 261.2 L 193.8 258.4 L 195.1 255.6 L 196.3 252.8 L 197.6 250.0 L 198.9 247.1 L 200.1 244.2 L 201.4 241.3 L 202.7 238.4 L 203.9 235.4 L 205.2 232.4 L 206.5 229.4 L 207.8 226.3 L 209.0 223.3 L 210.3 220.2 L 211.6 217.0 L 212.8 213.9 L 214.1 210.7 L 215.4 207.5 L 216.6 204.2 L 217.9 201.0 L 219.2 197.7 L 220.5 194.4 L 221.7 191.0 L 223.0 187.7 L 224.3 184.3 L 225.5 180.8 L 226.8 177.4 L 228.1 173.9 L 229.3 170.4 L 230.6 166.9 L 231.9 163.3 L 233.2 159.7 L 234.4 156.1 L 235.7 152.5 L 237.0 148.8 L 238.2 145.1 L 239.5 141.4 L 240.8 137.7 L 242.0 133.9 L 243.3 130.1 L 244.6 126.3 L 245.9 122.4 L 247.1 118.5 L 248.4 114.6 L 249.7 110.7 L 250.9 106.7 L 252.2 102.7 L 253.5 98.7 L 253.7 98.0" fill="none" stroke="#e34948" stroke-width="2.4" stroke-linecap="round" stroke-linejoin="round"/>
<circle cx="392.1" cy="98.0" r="3.2" fill="#7a3ba7"/>
<text x="400.1" y="102.0" font-size="12.5" font-weight="600" fill="#7a3ba7">O(n log n)</text>
<circle cx="253.7" cy="98.0" r="3.2" fill="#e34948"/>
<text x="261.7" y="117.0" font-size="12.5" font-weight="600" fill="#e34948">O(n²)</text>
<circle cx="604.0" cy="250.0" r="3.2" fill="#eb6834"/>
<text x="612.0" y="254.0" font-size="12.5" font-weight="600" fill="#eb6834">O(n)</text>
<circle cx="604.0" cy="364.0" r="3.2" fill="#2a78d6"/>
<text x="612.0" y="368.0" font-size="12.5" font-weight="600" fill="#2a78d6">O(log n)</text>
<circle cx="604.0" cy="392.5" r="3.2" fill="#008300"/>
<text x="612.0" y="396.5" font-size="12.5" font-weight="600" fill="#008300">O(1)</text>
</svg>