<svg xmlns="http://www.w3.org/2000/svg" viewBox="0 0 760 340" width="760" height="340" font-family="system-ui, -apple-system, 'Segoe UI', 'Malgun Gothic', sans-serif">
<rect x="1" y="1" width="758" height="338" rx="14" fill="#fcfcfb" stroke="rgba(11,11,11,0.10)"/>
<defs><marker id="ah" markerWidth="9" markerHeight="9" refX="6" refY="3" orient="auto"><path d="M0,0 L6,3 L0,6 Z" fill="#898781"/></marker><marker id="ahb" markerWidth="9" markerHeight="9" refX="6" refY="3" orient="auto"><path d="M0,0 L6,3 L0,6 Z" fill="#2a78d6"/></marker><marker id="ahr" markerWidth="9" markerHeight="9" refX="6" refY="3" orient="auto"><path d="M0,0 L6,3 L0,6 Z" fill="#e34948"/></marker><marker id="aho" markerWidth="9" markerHeight="9" refX="6" refY="3" orient="auto"><path d="M0,0 L6,3 L0,6 Z" fill="#eb6834"/></marker><marker id="ahg" markerWidth="9" markerHeight="9" refX="6" refY="3" orient="auto"><path d="M0,0 L6,3 L0,6 Z" fill="#008300"/></marker><marker id="ahp" markerWidth="9" markerHeight="9" refX="6" refY="3" orient="auto"><path d="M0,0 L6,3 L0,6 Z" fill="#7a3ba7"/></marker></defs>
<text x="34" y="40" font-size="20" font-weight="700" fill="#0b0b0b">데드락의 순환 대기와 락 순서 고정</text>
<text x="34" y="61" font-size="12.5" fill="#52514e">JDK 17 실측 — findDeadlockedThreads() 가 두 스레드를 잡아냈다</text>
<rect x="34" y="82" width="344" height="168" rx="9" fill="#e34948" fill-opacity="0.07" stroke="#e34948" stroke-opacity="0.30" stroke-width="1.2"/>
<text x="48" y="103" font-size="13" fill="#e34948" font-weight="700" text-anchor="start">순환이 생기는 경우</text>
<text x="48" y="120" font-size="11.5" fill="#52514e" font-weight="400" text-anchor="start">각자 다른 순서로 락을 잡는다</text>
<rect x="54" y="130" width="128" height="38" rx="4" fill="#ffffff" stroke="#2a78d6" stroke-width="1.3"/>
<text x="118.0" y="153.5" font-size="12.5" fill="#2a78d6" font-weight="600" text-anchor="middle">스레드 1</text>
<rect x="230" y="130" width="128" height="38" rx="4" fill="#ffffff" stroke="#eb6834" stroke-width="1.3"/>
<text x="294.0" y="153.5" font-size="12.5" fill="#eb6834" font-weight="600" text-anchor="middle">스레드 2</text>
<rect x="54" y="196" width="128" height="34" rx="4" fill="#ffffff" stroke="#898781" stroke-width="1.3"/>
<text x="118.0" y="217.32" font-size="12" fill="#0b0b0b" font-weight="600" text-anchor="middle">락 A 보유</text>
<rect x="230" y="196" width="128" height="34" rx="4" fill="#ffffff" stroke="#898781" stroke-width="1.3"/>
<text x="294.0" y="217.32" font-size="12" fill="#0b0b0b" font-weight="600" text-anchor="middle">락 B 보유</text>
<line x1="186" y1="143" x2="226" y2="143" stroke="#e34948" stroke-width="1.4" marker-end="url(#ahr)"/>
<text x="206" y="136" font-size="10.5" fill="#e34948" font-weight="400" text-anchor="middle">B 요청</text>
<line x1="226" y1="158" x2="186" y2="158" stroke="#e34948" stroke-width="1.4" marker-end="url(#ahr)"/>
<text x="206" y="178" font-size="10.5" fill="#e34948" font-weight="400" text-anchor="middle">A 요청</text>
<rect x="398" y="82" width="328" height="168" rx="9" fill="#008300" fill-opacity="0.07" stroke="#008300" stroke-opacity="0.30" stroke-width="1.2"/>
<text x="412" y="103" font-size="13" fill="#008300" font-weight="700" text-anchor="start">순서를 고정하면 원이 안 생긴다</text>
<text x="412" y="120" font-size="11.5" fill="#52514e" font-weight="400" text-anchor="start">항상 id 오름차순으로 잡는다</text>
<rect x="416" y="130" width="132" height="38" rx="4" fill="#ffffff" stroke="#2a78d6" stroke-width="1.3"/>
<text x="482.0" y="153.5" font-size="12.5" fill="#2a78d6" font-weight="600" text-anchor="middle">스레드 1</text>
<rect x="576" y="130" width="132" height="38" rx="4" fill="#ffffff" stroke="#eb6834" stroke-width="1.3"/>
<text x="642.0" y="153.5" font-size="12.5" fill="#eb6834" font-weight="600" text-anchor="middle">스레드 2</text>
<rect x="416" y="196" width="292" height="34" rx="4" fill="#ffffff" stroke="#008300" stroke-width="1.3"/>
<text x="562.0" y="217.32" font-size="12" fill="#008300" font-weight="600" text-anchor="middle">둘 다 A → B 순서로 잡는다</text>
<line x1="482" y1="172" x2="512" y2="192" stroke="#008300" stroke-width="1.4" marker-end="url(#ahg)"/>
<line x1="642" y1="172" x2="612" y2="192" stroke="#008300" stroke-width="1.4" marker-end="url(#ahg)"/>
<rect x="34" y="264" width="692" height="62" rx="9" fill="#7a3ba7" fill-opacity="0.07" stroke="#7a3ba7" stroke-opacity="0.30" stroke-width="1.2"/>
<text x="48" y="285" font-size="13" fill="#7a3ba7" font-weight="700" text-anchor="start">실측 스레드 덤프</text>
<text x="48" y="302" font-size="11.5" fill="#52514e" font-weight="400" text-anchor="start">deadlock-1  BLOCKED  대기 락 Object@1a18644  소유자 deadlock-2      /      deadlock-2  BLOCKED  소유자 deadlock-1</text>
</svg>